<?xml version="1.0" encoding="utf-8"?>
<!-- Generator: Adobe Illustrator 24.3.0, SVG Export Plug-In . SVG Version: 6.00 Build 0)  -->
<svg version="1.1" id="Layer_1" xmlns="http://www.w3.org/2000/svg" xmlns:xlink="http://www.w3.org/1999/xlink" x="0px" y="0px"
	 viewBox="0 0 262.5 112.5" style="enable-background:new 0 0 262.5 112.5;" xml:space="preserve">
<style type="text/css">
	.st0{fill:#FFFFFF;}
	.st1{fill:#4B59F7;}
	.st2{fill:#737373;}
</style>
<path class="st0" d="M16.6,25.2h53.1v51.6H16.6V25.2z"/>
<path class="st1" d="M114.2,51.9l-6.7-16L100.5,19c-0.5-1.2-1.6-1.9-2.9-1.9H68.3H39.1c-1.3,0-2.4,0.8-2.9,1.9l-7.1,16.9l-6.7,16
	c-0.9,2.1,0.7,4.3,2.9,4.3h3.8v36.1c0,1.7,1.4,3.1,3.1,3.1h72.1c1.7,0,3.1-1.4,3.1-3.1V56.2h3.8C113.5,56.2,115,54,114.2,51.9z
	 M67.6,78.1h-8.4c-1.1,0-2.1-0.7-2.5-1.7l-5.3-12.7C50.6,62,51.9,60,53.9,60h13.7V78.1z M67.6,58.6H57l-6-14.4
	c-0.7-1.8,0.6-3.8,2.5-3.8h14V58.6z M69.1,40.4h8.4c1.1,0,2.1,0.7,2.5,1.7l5.3,12.7c0.7,1.8-0.6,3.8-2.5,3.8H69.1V40.4z M83.1,78.1
	h-14V60h10.6l6,14.4C86.4,76.1,85,78.1,83.1,78.1z"/>
<g>
	<polygon class="st2" points="133.4,42.8 134.5,42.8 137,42.8 134.5,37.9 134.5,37.9 133.4,37.9 128,37.9 119.4,37.9 129.4,69.7 
		119.2,69.7 121.8,74.7 136.4,74.7 126.5,42.8 128,42.8 	"/>
	<polygon class="st2" points="151.9,53.9 148.1,53.9 148.1,38.1 143.1,38.1 143.1,74.7 148.1,74.7 148.1,59 151.9,59 151.9,74.7 
		156.9,74.7 156.9,38.1 151.9,38.1 	"/>
	<path class="st2" d="M177,39.4c-1.1-1-2.3-1.5-3.7-1.5h-2.8c-1.5,0-2.7,0.5-3.7,1.4c-1,1-1.6,2.2-1.6,3.6v26.9
		c0,1.5,0.5,2.7,1.5,3.6c1,1,2.3,1.4,3.8,1.4h2.9c1.4,0,2.6-0.5,3.6-1.5c1-1,1.6-2.2,1.6-3.6V43C178.6,41.6,178.1,40.4,177,39.4z
		 M173.6,69.1c0,0.4-0.2,0.8-0.5,1c-0.3,0.3-0.7,0.4-1.2,0.4c-1.1,0-1.7-0.5-1.7-1.4V43.7c0-0.4,0.2-0.7,0.5-1
		c0.3-0.3,0.7-0.4,1.2-0.4c0.5,0,0.9,0.1,1.2,0.4c0.3,0.3,0.5,0.6,0.5,1V69.1z"/>
	<path class="st2" d="M198.3,39.5c-1.1-1-2.3-1.4-3.7-1.4H187v36.6h5.1V61.8l4.9-2.7c2-1.3,2.9-3.2,2.9-5.6V43
		C199.9,41.6,199.3,40.5,198.3,39.5z M194.9,54c0,0.6-0.2,1-0.5,1.2l-2.2,1.3V43.1h1.4c0.9,0,1.4,0.4,1.4,1.1V54z"/>
	<path class="st2" d="M209.9,38.1l-5.8,36.6h5.1c0.2-1.7,0.6-4.5,1.2-8.2h3.8l1.2,8.2h5c-2.2-14-4.2-26.2-5.8-36.6H209.9z
		 M210.9,61.7l1.3-10l1.3,10H210.9z"/>
	<rect x="226.2" y="38.1" class="st2" width="5.1" height="36.6"/>
	<path class="st2" d="M249.9,58.1c1-0.7,1.7-1.4,2-2.2c0.3-0.8,0.5-1.9,0.6-3.2v-9.7c0-1.4-0.5-2.5-1.6-3.5c-1.1-1-2.3-1.5-3.7-1.5
		h-7.5v36.8h5V61.1c0.5-0.3,0.8-0.5,0.9-0.5l3.8,14.2h5.1L249.9,58.1z M247.4,52.7c0,0.7-0.2,1.2-0.5,1.4c-0.5,0.4-1.2,0.8-2.2,1.3
		V42.8h1.4c0.9,0,1.4,0.4,1.4,1.2V52.7z"/>
</g>
</svg>
